<svg xmlns="http://www.w3.org/2000/svg" xmlns:xlink="http://www.w3.org/1999/xlink" version="1.1" width="452" height="243"><defs/><g><g transform="translate(-406,-278) scale(1,1)"><rect fill="#ffffff" stroke="none" x="416" y="288" width="432" height="223"/></g><g transform="translate(-406,-278) scale(1,1)"><path fill="none" stroke="#000000" d="M 416 288 L 848 288 L 848 511 L 416 511 L 416 288 Z Z" stroke-miterlimit="10"/></g><g transform="translate(-406,-278) scale(1,1)"><rect fill="#C0C0C0" stroke="none" x="495" y="391" width="104" height="32" opacity="0.2"/></g><g transform="translate(-406,-278) scale(1,1)"><rect fill="#d8f2ff" stroke="none" x="488" y="384" width="104" height="32"/></g><g transform="translate(-406,-278) scale(1,1)"><path fill="none" stroke="#000000" d="M 488 384 L 592 384 L 592 416 L 488 416 L 488 384 Z Z" stroke-miterlimit="10"/></g><g transform="translate(-406,-278) scale(1,1)"><g><path fill="none" stroke="none"/><text fill="#000000" stroke="none" font-family="Arial" font-size="13px" font-style="normal" font-weight="bold" text-decoration="none" x="525.54638671875" y="400">User</text></g></g><g transform="translate(-406,-278) scale(1,1)"><rect fill="#C0C0C0" stroke="none" x="679" y="335" width="104" height="32" opacity="0.2"/></g><g transform="translate(-406,-278) scale(1,1)"><rect fill="#ffebd8" stroke="none" x="672" y="328" width="104" height="32"/></g><g transform="translate(-406,-278) scale(1,1)"><path fill="none" stroke="#000000" d="M 672 328 L 776 328 L 776 360 L 672 360 L 672 328 Z Z" stroke-miterlimit="10"/></g><g transform="translate(-406,-278) scale(1,1)"><g><path fill="none" stroke="none"/><text fill="#000000" stroke="none" font-family="Arial" font-size="13px" font-style="normal" font-weight="bold" text-decoration="none" x="679.591796875" y="344">Neighborhood</text></g></g><g transform="translate(-406,-278) scale(1,1)"><rect fill="#C0C0C0" stroke="none" x="679" y="447" width="104" height="32" opacity="0.2"/></g><g transform="translate(-406,-278) scale(1,1)"><rect fill="#ffd6ad" stroke="none" x="672" y="440" width="104" height="32"/></g><g transform="translate(-406,-278) scale(1,1)"><path fill="none" stroke="#000000" d="M 672 440 L 776 440 L 776 472 L 672 472 L 672 440 Z Z" stroke-miterlimit="10"/></g><g transform="translate(-406,-278) scale(1,1)"><g><path fill="none" stroke="none"/><text fill="#000000" stroke="none" font-family="Arial" font-size="13px" font-style="normal" font-weight="bold" text-decoration="none" x="705.575927734375" y="456">Street</text></g></g><g transform="translate(-406,-278) scale(1,1)"><path fill="none" stroke="#000000" d="M 724 360 L 724 440" stroke-miterlimit="10"/></g><g transform="translate(-406,-278) scale(1,1)"><path fill="none" stroke="#000000" d="M 724 426 L 717 440" stroke-miterlimit="10"/></g><g transform="translate(-406,-278) scale(1,1)"><path fill="none" stroke="#000000" d="M 724 426 L 731 440" stroke-miterlimit="10"/></g><g transform="translate(-406,-278) scale(1,1)"><path fill="#FFFFFF" stroke="none" d="M 717 418 C 717 414.1340064 720.1340064 411 724 411 C 727.8659936 411 731 414.1340064 731 418 C 731 421.8659936 727.8659936 425 724 425 C 720.1340064 425 717 421.8659936 717 418 Z"/></g><g transform="translate(-406,-278) scale(1,1)"><path fill="none" stroke="#000000" d="M 717 418 C 717 414.1340064 720.1340064 411 724 411 C 727.8659936 411 731 414.1340064 731 418 C 731 421.8659936 727.8659936 425 724 425 C 720.1340064 425 717 421.8659936 717 418 Z" stroke-miterlimit="10"/></g><g transform="translate(-406,-278) scale(1,1)"><path fill="none" stroke="#000000" d="M 731 367 L 717 367" stroke-miterlimit="10"/></g><g transform="translate(-406,-278) scale(1,1)"><path fill="none" stroke="#000000" d="M 731 374 L 717 374" stroke-miterlimit="10"/></g><g transform="translate(-406,-278) scale(1,1)"><g><path fill="none" stroke="none"/><text fill="#000000" stroke="none" font-family="Arial" font-size="13px" font-style="normal" font-weight="normal" text-decoration="none" x="738.5" y="385"/></g></g><g transform="translate(-406,-278) scale(1,1)"><g><path fill="none" stroke="none"/><text fill="#000000" stroke="none" font-family="Arial" font-size="13px" font-style="normal" font-weight="normal" text-decoration="none" x="738.5" y="414"/></g></g></g></svg>